<svg xmlns="http://www.w3.org/2000/svg" viewBox="0 0 820 854" width="820" height="854">

<path d="M359.63 40.32C386.82 36.4 406.71 64.11 396.51 89.03C391.25 101.87 377.92 109.43 364.5 110.34C344.34 111.72 329.79 92.77 330.28 73.51C330.69 57.92 344.27 42.54 359.63 40.32ZM408.5 41.26C413.87 41.77 416.63 47.74 419.59 51.89C426.03 60.92 432.7 72.43 440.5 80.15C443.49 71.54 442.83 61.92 444.5 53.01C445.42 48.12 446.11 44.13 451.5 43.28C455.33 47.22 453.58 55.35 453.34 60.5C452.64 75.73 452.77 92.37 448.5 107.07C443.33 106.27 440.48 101.15 437.36 97.17C430.39 88.28 424.7 77.26 416.52 69.5C413.81 75.68 413.66 88.41 412.87 95.5C412.45 99.26 412.32 104.29 409.15 106.5C401.97 105.58 403.28 97.28 403.49 91.81C403.93 80.36 404.49 68.93 405.15 57.5C405.45 52.35 405.39 45.52 408.5 41.26ZM490.76 117.5C488.76 111.64 493.07 104.66 492.81 98.5C488.12 94.73 479.31 92.39 473.5 93.33C469.57 99.53 470.7 110.92 461.5 109.8C457.51 104.38 460.44 95.48 461.84 89.46C465.6 73.38 471.25 45.73 494.32 52.23C514.43 57.91 505.72 89.84 502.49 103.98C501.19 109.66 499.65 123.28 490.76 117.5ZM359.59 53.27C343.48 56.45 336.34 78.29 346.58 90.91C353.1 98.95 364.1 99.66 373.36 96.8C389.49 91.81 392.32 69.51 381.2 58.31C375.53 52.6 367.17 51.77 359.59 53.27ZM314.5 55.35C320.5 57.71 321.26 65.5 322.45 71.12C324.19 79.31 326.22 87.48 327.62 95.74C328.69 102.09 329.04 108.06 332.19 113.5C330.98 117.8 328.91 119.39 324.37 118.5C320.74 114.5 320.3 107.69 318.92 102.53C316.09 91.9 313.58 81.19 310.99 70.5C309.53 64.46 307.18 57.86 314.5 55.35ZM303.94 62.5C302.69 66.64 298.9 69.2 296.18 72.5C295.97 82.21 303.11 99.49 306.04 109.47C307.54 114.55 309.93 120.83 304.5 124C298.67 123.31 297.63 117.52 295.97 112.51C292.21 101.11 289.29 89.24 284.5 78.21C279.94 75.66 273.08 77.33 270.17 72.5C270.34 71.28 270.17 70.47 270.88 69.4C273.25 65.85 286.21 63.14 290.45 61.88C292.74 61.2 295.11 60.21 297.5 59.98C300.51 59.69 302.04 60.3 303.94 62.5ZM495.5 83.78C499.33 75.36 496.16 56.94 484.31 62.8C479.61 65.12 473.84 75.04 477.55 79.96C480.3 83.6 491.55 84.44 495.5 83.78ZM528.5 65.22C532.57 64.78 535.44 65.05 537.93 68.5C536.84 71.84 534.69 74.54 533.24 77.73C530.04 84.74 527.58 92.15 524.81 99.34C522.53 105.24 519.96 111.18 521.5 117.49C526.14 121.26 536.05 124.07 532.51 131.5C525.93 133.31 511.44 127.93 507.19 122.5C507.1 116.6 509.77 110.86 511.83 105.37C515.1 96.68 518.17 87.89 521.82 79.35C523.77 74.8 525.23 68.91 528.5 65.22ZM288.27 130.5C280.31 131.13 278.18 119.91 273.34 115.5C267.4 115.51 259.81 119.16 255.73 123.5C256.32 129.7 263.71 142.56 256.5 145.82C251 143.29 248.26 136.02 245.61 130.87C238.63 117.31 222.63 88.28 241.58 78.1C262.54 66.84 275.35 95.23 282.52 109.97C285.31 115.73 290.89 124.13 288.27 130.5ZM266.23 103.5C264.8 95.91 256.12 82.79 246.73 88.19C238.16 93.11 243.79 107.71 249.42 112.5C255.05 111.5 262.91 108.24 266.23 103.5ZM611.96 106.5C607.34 111.03 600.55 105.28 595.99 110.5C589.34 118.09 583.84 131.76 578.14 140.67C575.53 144.75 573.32 149.56 568.5 151.05C561.81 147.84 565.44 141.8 568.15 136.65C572.02 129.3 576.33 122.21 580.57 115.07C582.8 111.32 586.21 106.82 586.76 102.39C587.41 97.18 581.41 95.11 580.93 89.5C584.2 86.89 587.55 87.96 591.28 89.28C596.43 91.11 609.08 96.88 611.51 101.95C612.27 103.54 612.01 104.82 611.96 106.5ZM210.5 100.02C214.54 103.07 217.52 107.84 220.57 111.9C226.61 119.93 232.39 128.1 238.18 136.3C240.93 140.19 245.62 144.83 246.5 149.56C242.43 151.81 237.86 150.05 233.5 149.04C225.85 147.27 218.18 145.61 210.53 143.87C206.15 142.87 201.99 141.33 197.74 142.5C204.43 152.17 211.12 161.83 217.82 171.5C216.01 174.38 214.79 176.73 211.5 177.81C206.9 174.67 203.78 169.47 200.43 165.1C194.06 156.78 187.62 148.51 181.49 140.01C178.29 135.57 173.08 130.45 173.5 124.79C177.84 123.33 183.46 125.53 187.92 126.54C194.73 128.08 201.53 129.68 208.34 131.29C212.84 132.35 217.63 134.25 222.14 133.5C217.46 123.7 205.59 113.83 203.59 103.5C205.66 100.98 207.26 100.35 210.5 100.02ZM620.87 158.5C619.64 165.27 620.65 179.51 615.5 183.97C603.98 181.34 608.26 158.27 606.5 149.37C599.08 153.3 596.61 166.54 586.51 162.5C585.28 156.71 590.86 149.16 593.9 144.36C601.84 131.83 615.43 109.35 633.24 115.31C647.44 120.06 654.99 142.07 641.86 152.34C636.22 156.75 627.43 156.39 620.87 158.5ZM624.69 126.29C614.14 129.01 617.49 148.02 627.29 146.66C630.81 146.17 637.02 141.99 637.72 138.36C639.05 131.49 631.33 124.58 624.69 126.29ZM184.16 170.5C192.23 172.4 202.36 172.83 209.35 177.5C203.25 189.78 182.53 180.58 171.93 182.5C175.08 187.9 187.05 198.39 183.32 204.5C176.16 206.29 171.19 198.57 166.61 193.88C155.74 182.76 136.2 164.23 146.08 147.61C152.2 137.31 164.08 135.83 174.05 141.45C176.38 142.76 179.22 144.52 180.47 147.01C184.02 154.08 182.18 163.05 184.16 170.5ZM161.54 149.44C148.5 149.45 154 170.94 166.44 167.86C177.17 165.21 171.82 149.43 161.54 149.44ZM648.5 219.76C647.39 218.67 646.27 217.59 645.16 216.5C645.28 208.44 654.12 203.76 656.85 196.5C654.26 192.29 650.24 187.29 645.5 185.77C638.92 187.78 634.37 194.34 627.5 195.55C625.15 194.28 624.28 192.94 623.26 190.5C625.21 185.63 629.31 182.09 632.79 178.27C639.95 170.45 650.58 158.03 660.21 153.68C666.54 150.82 674.38 149.48 679.92 154.57C682.7 157.12 686.59 161.03 687.8 164.67C693.12 180.65 676.7 195.27 667.08 205.59C662.16 210.86 656.26 219.84 648.5 219.76ZM667.5 187.85C670.9 185.21 674.42 181.72 676.34 177.8C679.03 172.32 676.97 162.23 669.09 162.52C662.7 162.75 656.23 168.97 653.86 174.5C656.55 180.28 662.43 184.18 667.5 187.85ZM540.5 639.54C536.5 634.89 535.99 628.4 535.89 622.5C535.65 607.87 539.8 593.3 547.07 580.6C549.09 577.08 556.65 566.65 557.13 563.46C557.69 559.7 554.85 553.85 554.8 549.5C554.73 542.17 557.51 533.76 555.96 526.54C555.59 524.81 554.28 523.61 553.44 522.1C551.61 518.81 550.23 514.88 549.37 511.22C548.48 507.4 548 503.43 548.18 499.5C548.33 496.2 549.25 492.87 548.83 489.54C548.45 486.5 546.52 483.8 545.54 480.95C544.5 477.92 543.77 474.61 543.3 471.44C542.09 463.2 542.7 454.84 541.65 446.62C541.2 443.12 539.88 439.85 539.17 436.44C538.61 433.77 538.68 431.54 537.5 429.06C532.84 429.96 530.6 435.1 525.89 436.44C521.61 437.65 517.03 435.3 512.79 436.43C510.02 437.16 507.31 440.76 504.57 442.11C500.5 444.12 496.21 444.07 492.09 445.57C488.07 447.04 484.69 451.48 481.81 454.5C485.54 461.17 489.27 467.83 493.01 474.5C491.8 476.21 488.89 477.63 488.21 479.68C487.29 482.43 488.37 485.77 488.91 488.5C490.37 495.89 492.27 503.17 494.1 510.47C495.24 515.04 498.13 521.46 495.5 525.74C491.17 523.46 486.83 521.18 482.5 518.91C481.42 523.48 482.51 528.09 484.12 532.5C488.24 534.97 492.83 535.45 496.19 539.28C499.81 543.4 499.77 549.27 503.08 553.37C504.59 555.25 506.93 556.27 508.9 557.58C513.3 560.52 516.94 564.23 519.69 568.78C527.11 581.09 524.69 590.4 523.46 603.79C522.42 615.12 520.8 627.66 515.41 637.91C506.41 655 489.84 655.13 472.5 656.27C466.27 656.68 454.3 655.79 450.06 650.41C445.14 644.18 447.96 630.78 447.95 623.5C447.94 621.09 447.08 618.44 446.5 616.15C429.56 615.4 412.46 615.81 395.5 615.86C387.32 615.88 377.33 614.42 369.5 616.9C367.03 625.59 368.04 635.51 367.95 644.5C367.91 648.26 368.17 653.89 365.28 656.83C361.28 660.91 351.64 659.21 346.5 659.05C331.81 658.58 315.62 654.67 305.66 642.82C303.81 640.62 303.29 638.01 301.92 635.58C301.2 634.31 300.05 633.43 299.49 632.07C297.02 626.14 295.9 618.84 294.77 612.55C294.15 609.05 292.67 605.92 291.93 602.5C291.15 598.88 291.32 595.15 290.87 591.5C289.98 584.18 287.78 577.02 291.54 570.05C295.02 563.62 302.23 560.71 306.48 554.97C308.05 552.85 308.37 550.14 309.28 547.72C310.7 543.98 313.42 540.55 316.38 537.89C318.28 536.19 320.82 535.86 322.66 534.16C327.03 530.13 330.49 519.84 327.56 514.71C325.14 514.71 322.71 514.71 320.29 514.71C318.51 510.3 321 506.46 322.74 502.26C325.13 496.54 327.9 489.61 326.5 483.4C324.71 482.43 322.92 481.47 321.13 480.5C321.85 472.22 329.85 466.25 331.5 457.97C328.89 454.82 324.84 454.78 321.13 453.4C317.27 451.97 314.84 448.82 311.32 447.17C306.72 445.01 301.45 446.26 296.81 443.65C288.08 438.73 285.68 429.03 280.5 421.21C278.65 426.21 277.18 431.47 274.88 436.41C274.07 438.15 272.45 439.65 272.08 441.54C271.45 444.77 272.51 448.29 272.84 451.5C273.4 457.07 273.84 463.76 272.64 469.26C271.7 473.56 270.12 478.5 267.82 482.32C266.57 484.4 263.95 486.42 263.19 488.66C261.03 494.94 263.74 504.64 262.79 511.46C262.39 514.36 260.54 520.19 259.56 523.11C258.71 525.67 256.78 527.96 256.26 530.63C255.4 535.1 257.28 539.96 257.28 544.5C257.28 550.82 255.35 557.2 255.97 563.5C256.72 571.26 263.99 580.96 267.44 588.07C270.19 593.74 272.71 599.71 274.79 605.66C275.76 608.45 276.17 611.49 277.35 614.2C280.55 621.52 281.14 635.61 273.5 640.59C263.09 637.63 248.79 625.12 240.97 617.53C220.83 597.99 201.97 577.52 189.19 552.32C184.85 543.78 179 536.02 175.49 527.02C166.84 504.81 159.87 482.08 156.22 458.46C154.38 446.58 154.19 434.48 153.79 422.5C153.46 412.7 152.87 402.27 154.22 392.54C154.97 387.14 156.9 381.86 157.82 376.47C159.22 368.26 159.79 359.59 162.22 351.6C162.8 349.69 164.13 348.12 164.73 346.26C166.66 340.27 168.56 334.23 170.69 328.24C172.68 322.63 174.34 316.73 176.74 311.28C178.6 307.04 181.32 303.08 183.47 298.97C188.93 288.55 194.55 277.61 201.65 268.18C206.21 262.13 211.69 256.86 216.84 251.32C228.46 238.83 240.71 226.19 254.06 215.54C261.02 209.99 265.05 207 273.53 204.06C279.15 202.12 284.52 200.8 290.5 200.79C294.1 200.78 297.89 201.14 301.33 202.24C321.45 208.64 321.54 234.56 322.13 251.5C322.67 267.13 324.11 279.12 342.67 280.59C349.89 281.16 361.11 275.8 365.93 270.41C371.14 264.6 379.22 246.05 380.68 238.35C382.68 227.8 382.09 218.61 370.94 214.54C367.97 213.46 365.66 212.28 362.5 212.19C360.13 214.95 359.23 217.3 355.5 217.96C352.35 215.11 351.75 211.67 351.67 207.5C351.42 194.73 356.69 188.22 367.82 183.39C373.18 181.07 379.34 182.26 384.68 180.26C389.18 178.57 390.73 172.76 395.56 171.11C407.23 167.13 428.27 175.64 437.74 182.76C444.78 188.05 446 196.1 447.36 204.29C449.58 217.54 450.6 231.13 451.71 244.52C452.13 249.57 451.58 254.64 452.77 259.59C454.31 266.02 458.69 283.15 466.5 284.3C468.94 284.66 471.25 283.82 473.55 283.13C485.07 279.67 484.01 276.61 488.22 266.69C496.12 248.06 488.28 221.42 506.1 207.58C521.08 195.94 542.33 202.8 556.27 212.24C587.7 233.54 613.58 264.52 631.98 297.55C646.87 324.29 655.89 353.49 660.81 383.55C662.79 395.66 662.49 408.25 663.19 420.5C663.45 425.13 663.65 429.88 664.2 434.49C664.52 437.1 665.48 439.88 665.48 442.5C665.47 445.8 663.13 448.69 662.46 451.82C661.93 454.33 662.11 456.92 661.74 459.45C660.99 464.58 659.44 469.68 658.36 474.75C656.86 481.81 654.9 488.75 653.36 495.77C652.92 497.79 653.08 499.95 652.44 501.92C651.75 504.03 650.23 505.79 649.45 507.91C640.71 531.71 629.36 554.48 614.6 575.13C600.73 594.55 582.95 611.93 564.56 627.04C558.26 632.22 549.1 641.58 540.5 639.54ZM130.5 173.75C133.47 178.84 128.91 183.54 127.35 188.5C128.67 191.97 131.24 194.31 134.5 195.97C139.99 194.65 143.4 188.42 149.5 190.87C151.23 196.63 147.32 199.69 144.88 204.5C148.65 208.64 152.79 213.75 158.5 214.67C164.06 211.06 169.09 203.06 176.01 208.5C175.6 214.39 164.03 229.07 157.52 228.01C152.88 227.26 148.44 222.38 144.87 219.6C137.41 213.77 130.18 207.63 122.91 201.56C119.02 198.32 114.51 195.16 112.29 190.5C115.24 184.96 123.47 172.15 130.5 173.75ZM458.5 290.02C458.33 286.68 455.6 284.22 453.78 280.69C451.17 275.63 449.24 269.04 448.23 263.45C445.14 246.38 445.6 228.66 443.23 211.47C442.32 204.87 442.27 196.88 438.28 191.23C435.75 187.64 431.58 185.61 427.74 183.74C417.61 178.8 398.04 169.76 390.83 183.5C393.5 185.24 402.46 187.02 406.69 188.79C408.46 189.52 411.52 190.14 412.54 191.94C413.28 193.23 412.97 194.12 413.04 195.5C404.95 200.54 400.46 191.53 393.34 190.5C397.06 197.85 400.78 205.2 404.5 212.54C399.78 215.78 396.6 212.17 391.94 210.54C386.57 208.66 380.36 207.46 374.78 208.5C389.51 215.95 389.39 229.78 384.66 244.22C383.89 246.57 382.25 248.54 381.4 250.82C380.72 252.61 380.62 254.58 379.89 256.36C377.49 262.22 373.17 268.8 369.11 273.63C363.63 280.13 352.26 289.53 357.5 299.04C363.04 298.16 365.51 293.41 370.5 292.07C372.88 298.84 374.05 307.24 379.5 312.36C385.45 308.07 387.44 299.6 392.5 294.26C398.9 299.69 399.89 310.28 404.5 317.15C409.21 314.09 409.78 307.47 410.59 302.23C410.87 300.42 410.66 297.08 412.26 295.76C413.09 295.08 413.55 295.34 414.5 295.03C418.37 300.71 420.61 308.57 426.5 312.62C433.35 306.93 430.6 296.61 435.5 292.98C440.15 295.24 441.21 302.01 447.5 301.4C448.83 297.61 450.17 293.81 451.5 290.02C453.83 290.02 456.17 290.02 458.5 290.02ZM389.32 199.5C385.99 190.85 382.86 186.57 372.72 188.36C366.19 189.51 354.82 195.11 358.15 203.5C361.38 202.74 364.12 200.41 367.5 200.01C374.68 199.17 382.4 201.41 389.32 199.5ZM704.5 191.06C718.07 196.72 724.14 221.14 718.27 233.74C712.19 246.79 697.87 251.6 684.5 250.84C681 250.64 676.93 250.35 673.74 248.77C668.15 246.01 653.65 232.47 656.28 225.75C657.94 221.54 664.55 218.14 667.96 215.48C679.38 206.55 691.65 197.78 704.5 191.06ZM109.5 197.08C110.63 198.22 111.77 199.36 112.9 200.5C111.61 204.83 110.32 209.17 109.02 213.5C118.38 223.76 132.26 229.91 143.19 238.34C147.98 242.02 154.03 247.07 146.5 252.03C141.11 251.38 142.84 249.7 139.33 247.18C132.18 242.03 124.04 237.75 116.61 232.95C111.69 229.77 106.39 225.58 100.5 224.93C96.12 228.03 93.67 232.6 87.81 231.5C84.92 227.86 87.48 224.57 89.52 221.02C93.25 214.49 102.14 198.71 109.5 197.08ZM703.61 205.5C699.87 205.59 696.57 207.97 693.53 210.01C687.45 214.08 673.25 224.15 670.38 230.5C675.32 241.75 692.41 242.83 701.47 236C704.96 233.38 706.81 229.66 708.19 225.63C709.8 220.91 710.06 217.09 708.15 212.4C707.02 209.62 705.94 207.37 703.61 205.5ZM351.5 288.44C337.79 283.75 325.26 288.94 318.45 271.1C316.45 265.86 317.1 259.99 317.12 254.5C317.16 238.1 317.68 216.29 299.25 209.3C295.79 207.98 292.19 207.66 288.5 207.79C273.8 208.32 258.52 220.06 247.84 229.37C221.64 252.2 204.95 273.36 188.54 304.05C183.4 313.66 179.28 323.54 175.15 333.61C173.41 337.83 170.29 341.61 172.5 345.46C180.13 342.24 186.1 336.1 192.13 330.62C208.16 316.05 221.44 297.83 233.39 279.87C238.12 272.76 242.38 265.46 246.47 257.97C248.18 254.85 249.74 250.8 253.66 250.5C256.42 256.69 249.87 263.29 249.05 269.5C264.43 272.33 270.42 256.27 279.5 247.8C283.08 254.34 273 263.19 279.5 271.46C282.57 269.64 282.77 266.39 285.5 264.11C292.65 269.46 285.73 283.01 293.5 288.1C296.17 286.61 298.83 285.11 301.5 283.62C308.38 292.45 300.03 311.7 312.5 319.16C314.5 317.58 316.5 316.01 318.5 314.44C327 319.02 322.51 334.73 332.22 338.32C335.42 339.5 338.67 337.45 341.89 337.5C345.03 340.35 344.93 343.45 346.27 347.26C348.44 353.41 352.13 360.99 357.5 364.85C362.04 359.89 362.06 351.85 367.5 349.01C371.83 355.96 376.17 362.92 380.5 369.87C386.09 366.64 387.47 359.71 392.5 357.22C399.26 359.63 400.1 368.35 405.5 372.55C409.06 370.35 412.95 366.32 415.42 362.91C416.59 361.29 417.07 359.68 418.5 358.3C425.15 360.22 427.71 369.28 433.5 373.1C439.68 370.28 438.6 362 443.5 357.97C446.83 360.64 450.17 363.31 453.5 365.98C464.53 359.76 462.1 342.06 470.5 336.05C473.17 337.4 475.83 338.75 478.5 340.1C491.92 337.45 487.41 324.34 496.5 318.27C497.83 319.13 499.17 319.99 500.5 320.84C514.67 314.61 509.05 295.74 514.5 285.96C516.2 286.81 517.9 287.65 519.61 288.5C529.47 283.97 525.77 270.21 530.5 262.15C532.5 263.77 534.5 265.4 536.5 267.02C540.21 262.53 538.72 257.27 540.5 252.11C547.11 252.32 548.9 260.08 553.61 263.92C556.24 266.07 559.2 266.26 562.5 266.05C564.54 265.92 565.57 265.53 567.28 264.5C566.75 260.83 566.22 257.17 565.7 253.5C572.61 253.89 579.65 269.6 583.25 275.27C595.98 295.33 609.26 314.69 624.69 332.78C628.19 336.88 635.81 345.84 640.78 347.64C642.8 348.38 644.21 347.96 646.14 347.5C645.12 340.58 641.41 334.73 639.43 328.11C639.04 326.78 638.96 325.38 638.39 324.11C637.11 321.28 634.81 318.89 633.53 315.97C632.4 313.4 632.27 310.08 630.78 307.73C630.13 306.7 629.03 306.17 628.32 305.2C626.61 302.85 625.86 299.63 624.42 297.09C620.16 289.57 615.34 282.23 610.35 275.18C597.75 257.36 582.96 241.27 566.04 227.48C553.19 217.01 529.4 201.12 512.71 211.2C499.51 219.18 499.73 233.89 497.9 247.5C496.94 254.67 493.66 268.84 490.86 275.39C486.84 284.76 476.62 287.01 469.25 292.73C462.57 297.9 465.79 302.48 455.5 303.03C453.17 306.7 450.83 310.37 448.5 314.04C445.83 311.06 443.17 308.08 440.5 305.1C435.5 312.1 430.5 319.09 425.5 326.08C419.8 322.83 421.84 314.82 416.5 312.03C413.86 316.57 407.55 330.52 403.5 332.67C399.21 327.78 399.4 325.47 397.82 319.62C396.86 316.1 394.95 312.52 393.5 309.18C386.6 311.8 383.51 321.06 379.3 326.5C373.33 320.36 374.38 310.13 367.5 304.21C361.88 304.6 356.86 308.88 351.5 305.71C351.08 299.91 353.19 294.32 351.5 288.44ZM137.96 264.5C134.22 268.5 128.64 268.91 123.54 270.14C114.85 272.23 98.51 273.92 91.54 278.5C101.01 284.17 110.49 289.83 119.97 295.5C119.49 298.28 118.91 299.61 116.8 301.5C111.45 301.82 106.21 298.3 101.46 296.06C92.47 291.8 83.66 287.26 74.86 282.62C70.29 280.22 65.41 278.3 61.83 274.5C64.41 270.02 70.69 269.77 75.45 268.8C82.82 267.3 90.23 265.9 97.57 264.25C101.24 263.42 106.11 262.89 108.87 260.5C101.96 255.97 94.45 252.39 87.42 248.05C83.21 245.45 80.02 243.76 79.98 238.5C84.91 234.54 90.75 238.36 95.75 240.73C105.17 245.2 114.43 249.97 123.6 254.9C128.58 257.58 134.32 260.09 137.96 264.5ZM744.5 265.74C737.98 264.26 736.61 257.32 731.5 253.96C730.17 253.99 728.91 253.9 727.59 254.21C717.4 256.56 725.1 265.85 725.84 271.5C724.39 273 722.95 274.5 721.5 276C715.73 274.67 713.73 267.95 709.5 264.25C705.38 266.67 701.26 269.08 697.14 271.5C698.48 277.5 699.81 283.5 701.14 289.5C698.88 291.58 697.59 291.89 694.5 291.86C688.24 286.69 683.85 276.25 682.03 268.5C689.73 260.6 709.93 251.41 720.25 245.73C723.73 243.81 730.05 238.69 734.19 239.46C736.59 239.9 738.14 242.18 739.51 243.98C743.12 248.7 751.46 261.67 744.5 265.74ZM548.5 268.09C545.51 268.58 538.54 272.74 537.27 275.75C536.02 278.69 536.88 283.35 536.88 286.5C536.88 294.51 536.79 302.51 536.31 310.5C535.84 318.28 531.6 327.62 542.5 328.81C546.22 326.85 547.91 322.63 549.32 318.78C553.16 308.3 552.16 295.33 552.53 284.31C552.73 278.21 553.83 272.16 548.5 268.09ZM271.5 270.66C266.92 272.19 261.99 273.96 258.63 277.5C258.24 282.39 259.96 287.72 260.74 292.56C262.63 304.35 262.76 326.08 274.5 332.51C276.17 331.73 277.83 330.96 279.5 330.18C282.13 321.33 278.47 311.33 277.2 302.46C275.74 292.16 276.96 279.94 271.5 270.66ZM575.5 275.02C571.06 273.25 566.16 273.76 561.78 275.5C558.65 281.97 560.26 290.51 560.61 297.5C561.38 312.52 561.06 327.63 562.62 342.59C563.36 349.7 567.32 358.75 574.5 361.3C575.99 353.47 575.84 345.46 576.1 337.5C576.52 324.49 576.91 311.52 577.04 298.5C577.11 292.22 578.87 280.18 575.5 275.02ZM250.5 277.89C241.65 274.83 238.33 284.23 238.4 291.5C238.54 305.17 239.15 318.85 239.77 332.5C240.12 340.24 239.64 348.15 241.5 355.7C247.55 353.36 250.42 345.42 252.25 339.73C257.61 323.01 256.24 312.59 254.26 295.48C253.63 290 253.79 282.42 250.5 277.89ZM281.5 280.32C279.97 286.13 281.35 292.57 281.9 298.5C283.32 313.85 285.72 342.27 299.5 351.84C302.82 348.44 300.67 342.86 300.13 338.5C298.99 329.17 298.08 319.86 297.24 310.5C296.85 306.15 297.12 301.71 295.94 297.5C293.15 295.93 289.72 295.52 287.5 292.99C284.34 289.38 284.33 284.13 281.5 280.32ZM111.5 319.08C106.9 321.02 102.05 319.65 97.44 318.13C86.48 314.5 75.29 309.62 64.92 304.56C59.28 301.82 52.52 300.83 53.2 293.5C57.52 289.25 64.12 292.64 69.16 294.4C80.31 298.29 91.65 302.16 102.37 307.15C107.7 309.64 112.77 312.43 111.5 319.08ZM585.5 291.97C583.48 299.89 584.23 308.38 583.76 316.5C583.33 323.82 582.06 331.2 581.87 338.5C581.67 346.14 583.11 354.19 584.73 361.63C586.43 369.42 587.14 378.68 593.5 384.2C593.84 383.81 594.49 383.74 594.75 383.3C595.65 381.8 595.37 378.9 595.53 377.17C596.12 370.96 596 364.73 596.01 358.5C596.02 346.83 595.99 335.17 595.88 323.5C595.83 318.03 596.67 310.95 594.74 305.72C592.94 300.83 588.52 296.25 585.5 291.97ZM528.5 292.84C525.65 293.79 520.24 296.55 519.03 299.59C517.21 304.2 518.26 310.64 517.84 315.5C517 325.45 514 335.58 513.95 345.5C520.37 346.61 523.75 340.6 525.53 335.06C528.77 324.96 530.6 303.05 528.5 292.84ZM230.5 298.92C225.6 304.13 218.47 310.88 216.48 317.92C213.76 327.56 217.17 345.08 217.78 355.5C218.33 364.75 217.25 375.46 220.5 384.22C226.58 381.95 229.6 374.74 231.38 368.8C236.19 352.82 233.93 336.83 233.14 320.5C232.83 314.12 234.28 304.28 230.5 298.92ZM775.5 352.84C769.76 349.02 771.31 338.21 765.48 332.02C753.71 319.53 731.73 322.45 726.24 339.68C723.61 347.9 728.04 358.01 725.08 364.5C714.52 366.87 712.54 350.11 713.36 342.66C715.01 327.78 727.46 315.75 741.8 312.4C756.05 309.08 770.12 317.09 776.68 329.79C780.08 336.38 786.14 350.1 775.5 352.84ZM316.5 325.94C312.42 324.66 309.21 323.69 305.49 321.5C304.75 325.15 304.8 328.75 305.06 332.5C305.77 342.52 310.96 363.66 319.77 369.69C321.83 371.1 324.12 371.16 326.5 371.31C326 368.68 324.48 366.46 323.59 363.88C322.44 360.55 321.74 356.94 321.21 353.46C320.07 345.89 321.27 331.72 316.5 325.94ZM604.5 321.78C601.23 331.59 601.83 343.27 602.04 353.5C602.43 372.52 603.19 392.01 608.21 410.43C610.15 417.54 619.09 436.57 628.5 433.11C629.15 428.36 627.73 423.31 627.15 418.5C626.12 409.83 625.19 401.15 624.31 392.46C623.09 380.56 623.15 368.45 622.29 356.5C621.95 351.69 622.62 346.3 620.72 341.74C618.8 337.12 608.49 324.94 604.5 321.78ZM509.5 325.47C505.5 327.18 501.5 328.89 497.5 330.6C494.88 338.67 491.13 352.81 493.5 360.88C495.39 360.59 497.12 360.41 498.67 359.16C503.41 355.32 507.08 340.72 508.4 334.79C509.07 331.77 509.77 328.56 509.5 325.47ZM208.5 327.97C204.92 330.17 196.73 336.78 195.21 340.7C192.53 347.63 193.16 356.21 193.1 363.5C193 377.16 193.24 390.85 192.83 404.5C192.6 412.09 187.48 424.92 191.5 431.16C214.1 423.4 211.91 389.23 211.56 370.5C211.47 365.49 211.29 360.5 211.12 355.5C210.9 349.52 211.63 332.24 208.5 327.97ZM532.5 337.19C531.27 342.77 531.25 348.77 530.85 354.5C530.04 366.13 529.39 377.9 527.76 389.45C526.54 398.12 524.83 407.16 521.93 415.45C520.54 419.4 517.81 423.35 517.5 427.54C526.87 432.56 533.48 417.91 535.47 410.95C540.46 393.5 543.55 375.57 545.07 357.5C545.6 351.27 547.67 344.32 546.5 338.19C542.16 336.27 537.12 336.5 532.5 337.19ZM281.5 338.88C277.64 337.13 272.64 337.83 268.5 338.71C268.24 347.48 271.95 358.78 273.75 367.58C276.93 383.17 280.83 404.16 286.81 418.66C290.16 426.76 293.63 439.42 304.5 438.66C304.61 434.63 302.44 430.25 301.19 426.39C299.04 419.77 296.96 413.03 295.34 406.26C292.76 395.5 289.48 384.51 288.19 373.5C287.16 364.72 285.22 346.38 281.5 338.88ZM553.5 337.85C552.05 345.64 552.25 353.67 550.86 361.48C550.49 363.55 549.56 365.47 549.23 367.55C547.42 379.05 546.79 390.9 545.87 402.5C545.23 410.7 544.12 418.94 544.5 427.18C548.95 421.64 550.74 413.27 553.17 406.62C554.82 402.09 557.12 397.73 558.58 393.14C560.07 388.46 561.12 383.58 562.42 378.84C563.56 374.69 565.34 370.74 565.97 366.5C563.04 362.36 559.91 358.22 557.96 353.5C555.88 348.49 555.32 342.95 553.5 337.85ZM260.5 340.91C257.53 343.66 256.22 347.94 253.91 351.36C250.95 355.73 246.98 359.25 243.92 363.5C249.37 377.06 255.01 390.8 259.75 404.69C262.65 413.17 264.55 423 269.5 430.55C274.61 425.52 273.37 414.09 273.17 407.5C272.73 392.9 269.15 378.7 266.24 364.44C264.66 356.71 263.9 348.08 260.5 340.91ZM338.5 345.98C335.13 345.98 331.76 345.98 328.38 345.98C327.34 350.88 328.15 356.41 329.32 361.28C329.71 362.94 331.12 364.19 331.66 365.79C332.03 366.9 331.85 368.23 332.32 369.28C332.81 370.38 334.08 370.74 334.75 371.73C338 376.52 337.78 379.55 343.5 382.96C344.33 378.3 342.87 373.2 342.24 368.47C341.25 361 341.65 352.89 338.5 345.98ZM53.84 347.5C54.77 355.1 47.01 355.74 44.73 362.5C46.47 365.28 48.47 366.82 51.5 368.07C62.31 362.66 67.11 347.47 80.5 346.62C93.67 345.79 104.09 361.03 100.66 373.24C98.5 380.91 89.66 386.74 83.5 390.87C80.1 390.39 78.57 389.45 76.79 386.5C78.37 377.11 94.97 372.01 86.5 360.07C79.15 356.43 73.99 361.8 69.5 367C63.19 374.3 55.27 382 44.63 377.86C36.37 374.65 31.59 363.95 35.29 355.74C38.18 349.32 47.3 343.74 53.84 347.5ZM487.3 348.11C483.19 348.11 479.09 348.11 474.98 348.11C474.6 356.23 474.75 364.37 474.88 372.5C474.94 375.85 474.27 379.5 476.5 381.86C487.09 375.38 486.27 359.07 487.3 348.11ZM186.5 349.36C181.47 349.72 169.97 355.25 167.29 359.77C163.94 365.41 163.67 374.12 162.88 380.5C160.05 403.58 159.3 426.34 161.75 449.51C162.2 453.86 162.39 458 163.5 462.23C164.56 462.1 165.26 462.37 166.31 461.88C167.74 461.21 171.55 453.97 172.67 452.21C173.99 450.13 174.64 447.6 176.02 445.61C176.86 444.39 178.13 443.68 178.8 442.32C181.36 437.14 182.1 430.3 183.36 424.73C184.03 421.77 185.63 419.01 186.5 416.09C186.05 414.89 185.61 413.7 185.16 412.5C188.14 406.17 187.06 398.35 187.14 391.5C187.3 377.73 188.46 363.01 186.5 349.36ZM523.5 350.97C519.17 351.92 514.83 352.87 510.5 353.82C508.47 358.88 508.89 364.36 508.45 369.75C507.99 375.45 506.94 380.9 506.31 386.55C505.72 391.82 506.24 397.17 505.68 402.45C505.04 408.42 504.12 414.4 502.63 420.23C501.34 425.29 498.26 430.08 497.5 435.15C506.72 434.91 507.32 427.84 512.01 421.52C514.31 418.43 515.02 414.42 516.33 410.78C520.86 398.18 522.03 384.75 523.33 371.54C523.98 364.97 525.63 357.28 523.5 350.97ZM652.5 463.01C654.3 460.97 653.74 458.91 654.67 456.25C655.19 454.76 656.17 453.58 656.49 452C657.72 445.92 656.74 438.7 656.77 432.5C656.84 421.65 657.39 410.63 656.52 399.8C655.95 392.6 654.54 385.41 653.36 378.29C652.48 373 652.73 365.43 649.59 360.87C648.04 358.62 633.05 352.68 630.11 352.5C626.92 359.56 629.6 369.88 629.97 377.5C630.89 396.44 633.13 426.16 639.83 443.64C642.09 449.57 646.68 460.23 652.5 463.01ZM292.5 354.5C291.74 361.85 294.41 370.25 295.74 377.57C298.72 393.92 301.68 410.34 307.51 425.99C310.09 432.89 313.94 444.85 322.5 444.77C320.33 433.84 315.5 423.43 313.22 412.44C310.87 401.15 309.38 389.63 307.36 378.28C306.71 374.59 306.89 369.6 305.26 366.27C302.88 361.43 296.66 357.68 292.5 354.5ZM746.73 362.35C754.02 361.11 763.63 361.58 770.2 365.33C777.09 369.26 784.52 377.95 786.95 385.55C788.28 389.72 788 394.19 787.99 398.5C787.98 402.72 788.05 406.94 786.44 410.92C784.34 416.1 779.79 420.59 775.49 423.99C770.9 427.61 765.21 430.83 759.35 431.66C725.32 436.49 705.6 389.59 734.03 367.52C737.69 364.68 742.2 363.13 746.73 362.35ZM367.5 362.71C361.4 369.33 360.29 381.35 368.5 387.01C373.82 385.18 377.62 378.35 375.77 372.71C374.55 368.99 370.19 365.41 367.5 362.71ZM467.5 362.75C463.49 365.41 459.5 370.1 457.62 374.5C459.8 377.6 461.68 379.97 465.5 380.69C469.38 376.59 468.64 367.88 467.5 362.75ZM346.5 363.9C346.42 369.53 346.87 378.82 350.5 383.13C356.56 376.64 354.87 367.22 346.5 363.9ZM393.5 368.23C390.4 370.66 387.3 373.08 384.2 375.5C384.57 380.56 387.89 387.52 392.5 389.97C397.55 388.55 402.52 382.09 401.16 376.53C400.75 374.85 399.45 374.29 398.51 373.01C396.82 370.7 396.28 369.38 393.5 368.23ZM421.5 369.16C417.68 372.61 413.86 376.05 410.03 379.5C412.4 383.94 414.85 388.97 419.5 391.18C430.28 387.24 430.97 375.17 421.5 369.16ZM498.82 369.5C491.44 369.63 488.33 375.24 486.14 381.59C482.04 393.5 483.16 407.13 480.87 419.46C480.01 424.06 476.9 428 476.17 432.54C475.32 437.77 477.32 443.92 481.5 447.1C486.75 444.06 488.81 436.85 490.86 431.41C496.6 416.14 499.34 403.95 499.9 387.5C500.09 381.98 501.33 374.43 498.82 369.5ZM447.5 369.89C439.47 373.85 434.01 385.09 445.5 388.92C449.4 386.84 452.31 379.11 450.74 374.72C450.17 373.15 448.49 371.15 447.5 369.89ZM578.5 370.94C576.83 370.94 575.17 370.94 573.5 370.94C568.02 376.23 566.06 387.06 563.73 394.3C558.22 411.48 549.37 432.68 548.03 450.5C547.51 457.41 547.49 471.78 553.5 476.27C556.41 470.68 557.79 464.44 560.14 458.61C563.71 449.75 568.45 441.2 571.64 432.21C572.99 428.41 573.63 424.38 575.14 420.63C576.27 417.83 577.8 415.15 578.7 412.26C579.88 408.49 580.12 404.48 581.28 400.72C582.79 395.8 584.76 391.95 584.26 386.5C583.85 381.99 580.13 375.36 578.5 370.94ZM238.5 372.17C235.54 375.15 228.85 385.52 228.94 389.5C229.13 398.32 235.69 410.23 238.83 418.63C244.19 432.94 249.64 447.23 254.87 461.58C256.92 467.19 257.74 473.38 260.5 478.69C267.53 473.6 266.33 457.85 265.46 450.19C263.12 429.75 256.61 410.92 248.12 392.36C245.04 385.64 243.77 377.73 238.5 372.17ZM747.61 374.29C735.38 376.39 729.38 391.31 732.46 402.1C736.45 416.14 750.37 423.47 764.22 418.64C780.31 413.03 780.26 390.48 769.86 379.66C764.49 374.07 754.86 373.05 747.61 374.29ZM334.5 449.73C336.87 446.79 341.84 430.25 341.14 426.53C340.89 425.2 339.78 424.41 339.2 423.26C337.56 419.98 336.38 415.92 335.11 412.43C333.6 408.31 333.22 403.72 332.14 399.45C331.11 395.35 329.98 383.83 328.34 381.19C326.61 378.4 317.45 376.42 314.37 376.5C314.47 385.91 317.2 395.4 318.74 404.63C319.07 406.59 318.6 408.54 318.89 410.47C319.94 417.2 322.62 424 324.89 430.55C327.03 436.74 329.29 445.6 334.5 449.73ZM457.5 383.95C452.47 390.66 448.21 402.83 458.5 407.02C463.04 404.09 464.91 397.6 465.95 392.5C464.06 388.87 461.06 385.92 457.5 383.95ZM381.5 386.41C378.32 388.45 373.76 392.57 373.26 396.57C372.51 402.59 379.17 409.64 384.5 411.15C386.39 408.96 391.05 401.28 390.44 398.05C389.65 393.81 384.42 389.35 381.5 386.41ZM360.5 387.27C353.71 390.27 351.87 399.78 359.5 402.91C365.98 399.67 364.93 391.91 360.5 387.27ZM38.5 388.03C43.43 393.77 40.17 402.13 43.46 408.5C47.85 409.69 52.24 410.12 56.5 408.38C58.86 401.85 55.58 393.15 65.5 394.24C67.06 399.31 68.63 404.37 70.19 409.44C75.12 409.44 80.05 409.44 84.97 409.44C85.9 403.68 86.2 391.96 93.5 391.37C95.47 393.85 95.27 397.2 95.46 400.31C95.88 406.98 96.29 414.04 95.5 420.67C81.53 422.15 66.47 421.44 52.47 420.36C46.03 419.87 38.67 420.01 32.69 417.5C31.68 411.45 28.94 394.33 33.3 389.78C34.89 388.13 36.4 388.15 38.5 388.03ZM406.5 387.99C403.77 391.49 401.03 395 398.3 398.5C400.64 403.43 404.24 410.44 409.5 412.57C414.32 409.95 416.61 403.7 416.96 398.5C413.97 394.63 410.96 390.11 406.5 387.99ZM434.5 387.57C432 391.55 429.5 395.52 427 399.5C429.35 403.44 431.1 407.86 435.5 409.8C437.94 408.41 439.1 406.48 440.63 404.16C445.5 396.77 440.73 391.98 434.5 387.57ZM356.7 410.5C355.76 408.3 354.32 406.45 353.14 404.36C349.25 397.46 345.88 389.08 336.53 390.5C336.53 394.01 338.1 397.29 338.62 400.75C338.96 402.97 338.49 405.28 338.92 407.47C339.61 410.96 342.07 417.43 344.5 419.92C348.57 416.78 352.63 413.64 356.7 410.5ZM475.5 391.73C471.64 393.42 472.39 396.61 470.83 400.36C468.69 405.54 465.88 409.26 462.35 413.5C463.38 417.93 467.12 421.7 471.5 422.84C476.21 417.1 475.89 407.57 476.19 400.5C476.33 397.28 476.99 394.53 475.5 391.73ZM593.5 393.07C589.01 396.59 584.78 413.87 582.57 420.11C578.23 432.3 573.71 444.34 568.79 456.31C565.91 463.3 562.4 470.48 560.31 477.75C559.6 480.19 559.52 482.8 558.64 485.2C556.02 492.33 554.03 509.79 559.5 515.83C563.13 511.09 564.88 506.15 567.29 500.77C569.74 495.33 572.56 490.03 575.19 484.67C581.23 472.34 587.59 460 592.71 447.24C594.38 443.08 595.42 438.7 596.96 434.49C598.35 430.7 600.62 427.03 601.54 423.09C603.32 415.43 600 398.04 593.5 393.07ZM219.5 396.14C216.87 401.46 216.56 407.62 214.67 413.22C213.71 416.07 211.27 419.15 211.48 422.24C211.95 429.13 219.9 444.59 222.84 451.63C227.49 462.79 233.18 473.58 237.66 484.79C242.16 496.07 245.8 508.34 251.5 519.09C256.68 514.46 255.26 498.96 254.35 492.36C253.39 485.39 252.68 478.39 250.8 471.58C246.29 455.24 239.17 439.2 233.21 423.33C230.84 417.03 228.42 410.73 226.14 404.4C224.45 399.7 225.4 396.51 219.5 396.14ZM371.91 408.5C367.54 405.04 363.67 410.82 363.5 414.9C358.5 418.79 351.21 422.92 348.62 429.12C348.2 430.14 348.31 431.23 347.86 432.26C346.49 435.45 344.21 438.12 343.05 441.54C341.71 445.44 341.43 449.5 339.84 453.36C337.07 460.13 333.31 466.57 330.99 473.5C343.22 475.51 348.81 453.08 355.5 449.78C360.88 455.42 355.93 462.99 356.67 469.5C357.3 469.57 357.84 470.1 358.46 470.07C360.27 470.01 362.35 467.08 363.34 465.81C366.55 461.7 368.33 456.28 372.5 453.08C375.86 454.29 376.47 457.22 378.44 460.09C381.52 464.59 386.51 471.73 391.5 473.82C394.28 462.99 390.82 438.7 384.14 429.32C380.02 423.53 373.81 420.46 369 415.5C369.97 413.17 370.94 410.83 371.91 408.5ZM424.5 408.05C421.46 408.87 420.37 410.47 418.43 412.9C413.34 419.27 411.99 424.13 420.5 428.59C427.42 424.34 433.86 413.13 424.5 408.05ZM448.5 407.88C444.6 410.52 446.05 414.56 443.26 417.78C439.72 421.83 434.07 423.68 430.45 427.94C421.49 438.49 414.19 459.26 414.5 472.96C426.24 469.2 429.6 453.32 437.5 446.82C443.16 450.32 443.71 461.18 452.5 465.14C453.8 460.15 453.3 452.46 457.5 449.14C459.64 450.77 460.5 453.11 462.13 455.32C465.47 459.85 474.33 471.41 479.91 471.5C478.88 461.25 470.54 439.7 464.39 431.14C462 427.82 457.5 425.45 455.58 421.92C454.29 419.53 455.29 417.16 454.76 414.66C454.11 411.61 450.95 409.35 448.5 407.88ZM395.5 408.68C394.11 410.32 391.38 412.9 390.48 414.91C388.23 419.87 391.63 426.01 396.5 427.04C404.1 422.51 404.62 411.66 395.5 408.68ZM35.5 425.45C41.14 427.7 40.89 434.53 43.5 439.17C56.84 438.94 70.16 438.25 83.5 438.09C90.16 438.01 97.05 437.73 98.74 445.5C95.97 451.13 88.92 449.99 83.5 450.1C70.68 450.37 57.12 449.75 44.43 451.5C43.12 455.34 41.81 459.19 40.5 463.03C37.58 464.23 35.42 464.33 32.5 463.12C29.97 454.58 30.68 444.37 31.14 435.5C31.35 431.45 31.29 427.03 35.5 425.45ZM410.5 427.19C406.92 427.8 403.99 429.53 401.5 432.2C400.66 436.99 403.54 441.87 406.5 445.61C415.34 442.62 416.81 433.69 410.5 427.19ZM561.5 555.09C566.16 552.74 568.13 548.46 570.81 544.27C572.91 540.99 576.15 538.17 578.58 535.11C587.77 523.57 597.2 511.99 604.82 499.31C608.25 493.6 610.38 487.57 613.18 481.64C613.93 480.06 615.46 479.26 616.3 477.77C617.53 475.56 617.79 472.47 618.52 470.04C620.46 463.62 625.63 454.04 625.27 447.5C625.01 442.7 611.99 432.65 607.59 431.5C604.26 436.52 602.18 442.72 599.69 448.21C594.38 459.88 589.14 471.59 583.62 483.16C577.81 495.35 567.53 511.64 564.7 524.34C564.03 527.35 562.24 529.89 561.42 532.82C559.44 539.92 559.42 548.06 561.5 555.09ZM206.5 431.77C200.94 433.27 194.87 437.82 191.5 442.5C191.87 450.51 196.79 459.35 199.68 466.77C208.4 489.08 221.08 509.61 233.55 529.9C238.36 537.73 242.15 547.23 249.5 553.14C252.26 548.41 249.29 530.84 246.8 525.7C246.21 524.5 245.35 523.79 244.9 522.48C244.36 520.94 244.32 519.2 243.8 517.64C242.41 513.39 239.99 509.4 238.22 505.29C235.08 498.02 232.27 490.58 229.29 483.24C226.97 477.53 225.14 471.41 222.59 465.84C221.59 463.63 219.86 461.81 218.85 459.59C215.29 451.78 211.79 437.89 206.5 431.77ZM778.16 473.5C779.1 481.69 783.76 488.86 778.19 496.71C773.93 502.7 769.09 502.96 762.2 503.53C751.11 504.45 739.26 503.52 728.38 501.27C723.28 500.22 717.82 499.61 714.27 495.5C715.04 487.73 723.5 489.8 729.44 490.37C739.01 491.29 748.88 492.38 758.5 492.38C764.1 492.39 768.25 492.31 771.63 487.5C770.27 482.15 765.59 480.25 760.62 478.78C751.78 476.14 742.54 474.83 733.45 473.23C728.65 472.38 722.46 471.92 719.8 467.5C720.32 464.4 721.5 461.31 725 460.52C728.73 459.68 733.73 461.37 737.5 461.82C745.44 462.76 753.49 463.87 761.5 463.96C765.92 464.01 773.94 465.57 774.95 459.47C776.23 451.7 768.4 448.71 762.53 446.95C753.36 444.2 742.99 444.11 733.5 443.24C728.83 442.81 724.17 443.28 720.5 439.99C718.68 430.71 732.29 432.01 738.5 432.35C751.49 433.07 778.13 434.86 784.78 448.73C786.09 451.47 785.99 454.54 785.99 457.5C785.99 460.46 786.12 463.55 784.81 466.29C783.4 469.21 780.48 471.32 778.16 473.5ZM411.93 452.5C410.12 452.05 407.95 452.05 406.19 451.34C403.68 450.32 402.1 448.19 399.53 447.5C398.81 455.66 402.25 467.77 402.67 476.55C402.82 479.69 400.75 481.8 400.31 484.69C399.64 489.18 403.32 498.71 406.5 501.86C411.94 497.76 412.72 488.81 412.05 482.5C410.63 481.83 409.21 481.17 407.78 480.5C406.19 475.34 409.55 469.38 410.6 464.22C411.39 460.34 411.9 456.45 411.93 452.5ZM633.5 450.17C629.63 456.51 628.36 464.4 625.8 471.34C622.26 480.93 617.45 489.99 612.37 498.84C595.22 528.73 572.19 554.56 554.71 584.24C550.95 590.63 549.95 593.38 547.83 600.34C546.04 606.24 543.53 611.13 543.08 617.5C542.75 622.18 542.21 627.65 545.5 631.12C548.56 630.37 554.81 626.85 557.14 624.62C558.05 623.76 558.15 622.47 559.12 621.65C560.2 620.74 561.82 620.39 562.99 619.5C568.08 615.63 572.57 611.07 577.21 606.69C606.94 578.61 627.31 546.63 642.02 508.51C644.89 501.08 647.42 493.48 649.35 485.75C650.29 481.99 651.98 477.43 650.95 473.56C649.9 469.61 643.55 463.98 641.08 460.37C638.73 456.93 637.33 451.83 633.5 450.17ZM184.5 451.4C179.59 455.24 176.84 461.51 172.46 465.96C170.32 468.13 166.76 470.41 166.29 473.64C165.67 477.86 167.66 482.71 168.66 486.75C170.47 494.11 172.11 501.61 174.71 508.75C187 542.45 206.25 571.78 230.44 598.07C238.61 606.96 247.73 614.81 256.98 622.51C261.18 626.01 265.88 630.71 271.5 630.54C273.19 614.82 265.18 599.91 258.17 586.33C250.61 571.67 241.7 557.56 232.55 543.94C227.71 536.73 224.18 528.21 219.88 520.63C217.36 516.17 214.42 511.96 212.14 507.37C206.76 496.56 200.48 486 195.48 475.03C192.03 467.46 189.77 457.88 184.5 451.4ZM98.91 467.5C94.31 473.3 86.37 472.2 80.31 475.5C77.71 480.87 79.82 488.34 82.5 493.44C88.37 494.76 95.65 491.01 100.85 494.5C103.7 503.6 91.13 504.81 84.75 506.35C69.86 509.94 42.13 516.33 38.18 494.44C37.25 489.27 37.39 482.51 40.54 478.03C42.78 474.85 47.03 473.33 50.47 471.91C58.64 468.55 67.11 466.16 75.75 464.36C82.95 462.87 95.84 458.12 98.91 467.5ZM437.5 462.26C434.07 463.64 432.04 468.07 429.34 470.83C427.03 473.19 420.97 476.94 419.54 479.02C417.92 481.4 415.17 496.12 415.5 498.95C422.94 495.03 438.04 485.35 439.79 476.41C440.61 472.27 439.25 466.01 437.5 462.26ZM375.5 466.6C373.16 470.15 374.39 474.62 375.85 478.57C379.19 487.63 386.95 495.74 395.5 500.14C397.65 488.35 385.36 472.22 375.5 466.6ZM461.5 466.65C461.39 481.35 465.15 486.23 472.8 497.71C476.48 503.23 480.18 509.33 486.5 511.98C486.88 507.21 485.14 502.17 484.17 497.46C483.08 492.16 482.55 484.55 479.52 479.96C478.07 477.77 475.27 476.81 473.21 475.32C469.21 472.41 466.23 468.3 461.5 466.65ZM444.5 468.06C443.77 471.43 445.44 473.2 445.57 476.41C445.63 477.73 445.21 479 445.34 480.35C445.6 483.18 446.87 486.02 447.72 488.71C449.67 494.83 451.41 501.23 454.62 506.85C458.92 514.38 467.09 523.46 474.5 527.95C475.36 524.06 474.94 520.27 474.36 516.32C472.6 504.22 468.18 500.31 462.2 490.3C460.37 487.24 459.48 483.8 457.78 480.74C455.06 475.86 449.21 470.89 444.5 468.06ZM347.5 472.09C338.3 479.56 333.87 481.25 330.8 493.44C329.97 496.7 329.01 499.6 329.5 502.91C339.12 496.78 350.06 484.26 347.5 472.09ZM366.5 474.62C358.35 477.41 353.22 486.54 348.98 493.45C346.15 498.08 341.4 501.33 338.33 505.78C334.15 511.83 332.48 521.32 332.32 528.5C338.19 527.4 343.09 521.65 346.57 517.1C355.57 505.37 366.66 490.07 366.5 474.62ZM64.5 479.13C59.28 479.24 52.32 481.05 49.18 485.69C47.99 487.45 47.64 489.41 47.85 491.5C48.58 498.89 56.61 499.36 62.5 498.84C65.34 498.59 67.99 497.86 70.46 496.5C71.26 490.94 69.09 482.6 64.5 479.13ZM371.5 486.92C364.21 499.16 371.62 507.19 380.96 514.53C384.15 517.04 389.28 521.41 393.5 519.99C395.37 507.97 380.79 493.26 371.5 486.92ZM441.5 488.08C437.38 490 434.83 493.98 431.48 496.99C427.96 500.16 423.5 502.29 420.54 506.07C417.12 510.45 415.92 516.75 414.5 521.76C423.87 518.62 434.46 509.13 438.93 500.45C441.1 496.22 444.02 492.82 441.5 488.08ZM446.5 503.87C443.57 505.8 443.09 508.03 442.96 511.5C445.57 513.2 448.3 513.73 449.83 516.5C447.84 517.5 445.84 518.5 443.84 519.5C443.84 523.33 443.84 527.15 443.84 530.98C449.06 530.32 454.28 529.67 459.5 529.01C459.97 526.43 459.86 524.24 458.71 521.75C457.72 519.59 455.83 517.95 454.5 516C451.77 512 449.83 507.41 446.5 503.87ZM364.5 506.88C359.17 510.04 353.84 520.13 350.28 525.5C353.57 528.81 358.22 527.15 362.49 527.97C364.9 528.43 366.03 529.83 368.55 529.5C373.9 521.55 363.12 521.83 360.87 516.5C363.05 514.4 365.13 514.2 368.05 513.5C367.45 510.63 366.61 508.94 364.5 506.88ZM411.71 508.5C407.26 506.75 403.36 507.52 399.66 510.5C400.34 516.42 403.21 522.56 402.23 528.5C393.47 530.3 384.28 523.47 376.5 520.08C375.46 524.27 376.12 528.72 377.5 532.83C387.03 530.84 393.19 528.88 400.01 537.5C401.8 539.76 402.54 542.57 404.5 544.69C411.88 543.74 415.19 535.34 421.85 532.4C426.88 530.19 432.64 531.81 437.35 529.5C438.31 525.55 438.41 521.34 435.5 518.29C426.97 521.93 418.36 532.47 408.25 530.5C404.56 522.74 412.92 516.19 411.71 508.5ZM690.01 565.5C692.96 559.76 697.32 561.03 702.66 562.77C712.2 565.87 721.63 569.45 731.24 572.33C735.72 573.67 744.78 574.03 746.73 568.27C748.93 561.77 742.21 559.22 737.56 556.94C729.12 552.79 720.08 549.92 711.57 545.92C707.84 544.17 703.66 542.67 702.48 538.5C704.64 533.66 709.13 534.82 713.45 536.11C723.35 539.05 733.25 542.22 743.37 544.29C748.2 545.28 756.32 547.18 757.83 540.39C758.89 535.67 754.64 532.57 750.99 530.51C741.84 525.35 730.96 522.54 720.96 519.52C715.87 517.99 708.71 516.26 710.87 509.5C716.4 505.1 726.57 509.87 732.66 511.75C748.31 516.6 772.97 522.89 767.85 544.44C766.12 551.76 760.38 553.05 757.83 558.39C754.39 565.56 759.79 573 751.9 579.4C749.14 581.64 744.96 584.14 741.45 584.82C731.52 586.74 715.43 579.16 706.19 575.36C700.98 573.21 692.7 570.64 690.01 565.5ZM107.99 518.5C107.01 524 100.25 525.22 95.47 526.94C86.87 530.04 66.38 535.17 60.16 540.5C60.18 545.77 60.37 550.67 54.5 552.06C51.14 550.38 50.47 547.75 49.22 544.32C46.78 537.64 41.81 523.79 45.35 517.5C51.29 516.31 52.98 521.3 55.5 525.77C66.04 526.01 82.44 519.21 93.37 516.72C98.36 515.58 104.96 513.2 107.99 518.5ZM469.5 531.92C469.67 534.19 470.23 534.76 472.6 535.5C472.22 533.05 472 533.04 469.5 531.92ZM365.5 549.91C365.92 547.43 366.11 545.03 365.83 542.5C363.81 523.75 342.06 537.21 346.5 551.33C350.09 547.49 355.63 539.03 361.63 543.9C363.47 545.39 363.96 548.19 365.5 549.91ZM116.5 574.64C106.15 569.18 123.07 555.66 110.82 547.66C109.55 546.83 108.02 546.21 106.5 546.08C98.73 545.44 96.87 552.25 95.72 558.41C93.89 568.19 93.87 580.31 83.52 585.05C80 586.65 76.26 587.03 72.54 585.96C64.43 583.63 59.65 575.69 59.7 567.5C59.75 561.61 62.78 554.71 69.56 555.5C77.68 561.76 66.27 567.7 72.48 573.03C76.3 576.32 80.73 573.69 82.08 569.5C85.99 557.35 84.94 533.8 104.5 535.02C114.5 535.65 125.97 545.04 126.7 555.55C126.89 558.27 126.01 561.05 125.18 563.61C123.58 568.59 121.92 573.21 116.5 574.64ZM427.5 535.08C422.27 538.52 415.58 539.69 415.57 547.5C417.38 547.84 419.49 547.79 421.27 548.3C426.72 549.87 426.5 556.02 428.5 560.09C429.5 554.71 430.5 549.34 431.5 543.96C434.2 544.73 435.2 546.55 437.5 547.99C438.9 545.16 440.3 542.33 441.7 539.5C438.38 536.07 431.95 536.81 427.5 535.08ZM462.5 552.37C463.07 549.97 463.33 548.06 462.78 545.58C462.42 543.93 461.62 542.18 460.74 540.75C453.02 528.06 438.36 547.04 444.5 555.21C446.06 550.48 446.49 545.11 452.5 544.94C454.45 544.88 456.61 545.1 458.24 546.29C460.29 547.78 460.81 550.65 462.5 552.37ZM397.5 544.52C395.68 535.71 388.02 537.49 381.5 537.95C378.19 538.19 374.61 537.96 371.6 539.07C371.6 542.68 371.6 546.3 371.6 549.91C376.48 547.91 375.05 544.57 380.49 543.92C380.49 548.7 380.49 553.47 380.49 558.24C383.2 554.65 383.27 546.97 388.79 545.39C391.66 544.57 394.58 545.35 397.5 544.52ZM341.73 540.5C331.18 537.89 316.53 539.1 313.68 551.5C317.22 551.65 320.44 548.8 324.26 550.27C327.39 551.48 328.46 555.7 330.5 558C330.96 553.69 329.71 548.64 332.5 545.09C334.17 545.74 335.83 546.38 337.5 547.03C340.03 545.24 341.22 543.56 341.73 540.5ZM494.59 548.5C493.17 535.85 483.75 541.49 476.5 541.95C473.5 542.14 471.07 541.25 468.27 540.5C467.89 544.27 468.25 548.07 470.5 551.14C475.24 549.21 474.61 544.93 480.5 545.48C478.21 551.08 477.06 556.49 479.5 562.27C482.25 556.78 481.16 548.86 489.51 548.25C491.21 548.13 492.9 548.41 494.59 548.5ZM355.5 548.3C347.67 552.86 352.72 565.91 356.5 571.76C360.54 568.55 362.31 557.73 360.56 552.89C359.7 550.51 357.67 549.24 355.5 548.3ZM404.5 550.34C396.71 554.81 395.99 565.29 392.07 572.57C389.95 576.49 388.11 580.24 383.5 580.87C382.49 577.36 383.53 574.07 382.97 570.52C382.44 567.14 375.42 558.52 372.5 557.05C366.9 560.1 365.56 564.63 363.79 570.34C363.11 572.5 361.86 574.5 361.26 576.68C360.42 579.78 360.55 582.33 358.5 584.92C352.95 584.29 353.87 580.01 351.9 575.58C348.62 568.21 344.52 559.2 338.5 553.75C335.6 556.66 335.98 560.53 334.88 564.45C333.67 568.81 331.95 572.19 331.46 576.83C331.08 580.5 331.55 584.13 329.5 587.23C319.08 583.29 317.16 569.17 309.5 562.17C302.03 562.81 295.06 569.95 294.2 577.54C293.28 585.6 297.44 602.92 299.26 611.37C300.95 619.17 302.86 628.5 307.08 635.37C317.74 652.75 340.33 654.53 358.66 652.5C361.84 645.89 362.2 623.95 360.5 616.73C353.41 613.84 338.59 616.42 331.21 618.65C327.09 619.89 322.9 621.85 323.54 627C324.56 635.34 334.2 633.47 337.14 639.5C323.55 645.75 308.76 625.22 320.08 614.57C327.37 607.7 340.26 608.04 349.5 607.89C370.17 607.56 390.83 607.23 411.5 607.4C431.61 607.56 451.47 608.24 471.5 609.81C481.4 610.59 492.17 610.42 496.78 620.71C498.28 624.07 499.06 628.35 497.32 631.79C494.32 637.74 481.4 641.15 476.92 636.5C482.15 630.46 491.13 634.75 489.81 623.5C479.98 617.98 473.81 617.13 462.5 617.16C458.39 617.17 453.39 616.64 450.21 619.5C449.94 620.37 449.37 621.52 449.4 622.45C449.45 624.1 450.64 625.88 450.98 627.51C452 632.45 452.05 637.55 453.01 642.5C453.45 644.81 454.11 647.87 456.3 649.19C459.48 651.11 464.92 650.09 468.5 650.08C478.93 650.07 496.9 649.11 504.84 641.34C514.01 632.37 515.14 606.76 516.22 594.5C516.75 588.51 517.61 582.39 516.07 576.48C514.03 568.66 505.13 558.34 496.5 559.49C491.35 566.52 490.39 582.18 479.5 582.95C479.05 580.06 480.19 577.44 479.82 574.55C479.57 572.55 472.88 560 471.5 558.35C455.8 559.99 460.58 578.33 451.5 583.22C449.24 579.13 448.39 574.39 446.37 570.15C444.15 565.48 440.42 561.26 437.5 557.02C436.7 557.41 436.21 557.4 435.5 558C433.96 559.31 433.17 561.8 431.95 563.41C429.62 566.45 425.86 569.21 424.38 572.81C422.9 576.39 423.8 580.19 421.5 583.31C415.23 579.08 413.33 568.49 412.24 561.45C411.42 556.1 410.71 551.06 404.5 550.34ZM452.5 549.93C449.36 553.73 451.18 562.96 452.5 567.77C457.36 564.55 456.8 553.43 452.5 549.93ZM389.5 550.78C386.14 554.8 387.11 562.16 388.5 567.06C392.29 563.6 395.08 553.44 389.5 550.78ZM488.5 553.12C485.01 556.49 485.69 563.74 486.5 568.38C490.18 564.63 490.91 557.8 488.5 553.12ZM420.5 555.04C415.55 557.09 416.43 563.46 419.5 567.02C422.08 563.69 422.96 558.65 420.5 555.04ZM321.5 555.82C314.48 559.39 319.83 571.4 325.5 573.93C326.28 568.48 325.75 559.57 321.5 555.82ZM738.96 606.5C738.52 609.89 737.49 611.23 734.5 612.95C723.74 610.8 704.43 598.95 694.51 593C689.93 590.25 684.57 587.6 682.53 582.5C685.99 575.41 692.66 579.77 698.02 582.48C707.28 587.18 716.46 591.97 725.57 596.95C730.23 599.49 735.9 602.06 738.96 606.5ZM693.85 599.5C690.31 612.21 671.79 601.16 672.89 617.5C673.02 619.38 673.23 621.48 674.5 623C678.12 627.35 685.65 624.04 689.83 622.39C702.36 617.44 718.21 610.06 723.71 628.71C726 636.46 723.25 644.49 716.3 648.8C710.48 652.41 701.42 653.86 698.07 646.5C700.36 636.13 717.93 643.6 712.5 629.12C707.2 627.11 701.85 630.44 696.94 632.46C685.91 637 671.57 640.7 664.48 628.05C660.31 620.61 660.03 610.77 665.07 603.63C670.89 595.38 686.62 590.8 693.85 599.5ZM168.25 626.5C166.6 632.38 161.44 635.68 156.93 639.44C149.82 645.38 142.48 650.98 135.12 656.59C130.19 660.35 125.41 664.79 119.5 666.88C114.08 664.11 111.14 658.23 108.55 652.94C105.49 646.71 102.66 639.62 103.31 632.55C104.94 614.72 124.39 601.63 141.52 604.83C147.72 605.99 152.51 609.23 157.27 613.22C161.61 616.86 166.38 621.06 168.25 626.5ZM155.5 626.5C149.14 617.64 139.45 612.65 128.51 616C125.06 617.06 121.44 618.79 119.12 621.67C112.55 629.82 112.37 646.63 122.5 651.91C132.84 646.91 146.68 634.33 155.5 626.5ZM665.63 634.5C665.23 647.86 640.55 635.64 642.15 652.5C642.32 654.32 643.01 656.04 643.93 657.6C647.66 663.94 653.08 661.14 658.64 659.19C668.07 655.89 682.95 649.75 689.76 660.73C694.49 668.35 693.07 681.46 684.98 686.47C681.87 688.39 678 688.12 674.5 688.05C670.86 687.98 667.98 688.04 665.23 685.5C665.23 683.5 665.23 681.5 665.23 679.5C671.51 676.96 681.62 678.78 683.1 670.5C679.56 664.07 673.24 667.46 667.46 668.86C655.81 671.7 639.83 675.94 633.48 662.05C629.42 653.17 630.91 640.59 639.11 634.6C645.83 629.69 660.18 626.34 665.63 634.5ZM148.5 698.5C142.33 696.05 136.68 690.04 132.51 684.97C129.66 681.5 129.17 677.83 133.29 675.5C138.96 676.52 143.43 682.15 147.5 685.89C150.34 682.43 153.18 678.96 156.02 675.5C153.65 670.61 148.65 666.95 147.91 661.5C149.1 660.33 150.3 659.16 151.5 657.99C156.17 660.64 160.83 663.29 165.5 665.94C169.39 662.12 173.29 658.31 177.18 654.5C174.86 648.93 165.2 641.65 168.2 635.5C175.83 634.07 190.79 647.19 188.73 655.31C187.65 659.56 182.49 663.96 179.66 667.18C173.11 674.61 166.36 681.86 159.49 688.99C156.34 692.26 152.77 696.89 148.5 698.5ZM620.5 660.15C630.51 664.65 644.79 683.38 652.48 692.03C655.97 695.94 661.53 701.11 658.95 706.5C653.29 709.49 649.65 704.28 646.02 700.48C638.36 692.45 631.03 684.14 623.53 675.96C619.91 672.01 615.54 668.55 616.5 662.87C617.83 661.96 619.17 661.06 620.5 660.15ZM207.5 666.29C211.94 670.99 207.09 677.17 203.95 681.42C197.39 690.3 181.33 705.46 179.02 715.5C181.38 719.53 184.5 722.26 181.5 726.99C172.96 726.9 165.2 717.62 160.25 711.26C157.64 707.9 154.59 704.97 157.5 700.93C161.37 699.94 165 703.52 168.5 705.07C175.93 700.5 187.27 685.06 193.33 677.81C197.01 673.42 201.59 667.05 207.5 666.29ZM597.78 679.41C633.93 673.99 652.09 726.4 620.03 744.53C616.19 746.7 611.89 748.32 607.5 748.94C591.67 751.2 579.47 744.36 571.83 730.67C569.45 726.4 566.98 721.47 566.7 716.5C565.75 699.7 581.56 681.84 597.78 679.41ZM225.39 684.5C228.04 688.88 224.49 693.76 222.07 697.62C215.47 708.14 208.1 718.26 200.95 728.42C197.76 732.95 194.81 739.43 188.5 735.92C186.67 730.72 190.26 725.94 193.03 721.56C199.18 711.83 205.94 702.53 212.8 693.29C216.27 688.63 218.92 682.88 225.39 684.5ZM235.5 690.9C239.65 693.5 239.73 699.35 240.55 703.88C242.69 715.85 243.58 728.61 247.5 740.15C253.87 735.82 258.31 723.84 262.74 717.26C265.29 713.48 267.76 709.68 272.4 712.5C274.13 717.54 270.66 722.41 268.34 726.81C262.83 737.26 257.42 747.76 251.45 757.96C248.96 762.21 246.54 768.05 241.5 769C238.42 765.32 238.49 759.37 237.64 754.71C235.53 743.09 234.47 730.21 230.5 719.09C224.96 725.9 220.83 734.23 216.09 741.63C213.64 745.45 211.47 749.55 206.48 748.5C202.66 743.19 206.67 738.03 209.43 732.92C214.66 723.24 220.09 713.69 225.73 704.25C228.43 699.72 230.97 693.7 235.5 690.9ZM600.71 691.29C589.48 693.69 579.51 704.84 579.27 716.5C579.04 727.96 591.18 739.17 602.41 738.61C617.12 737.88 627.39 724.84 624.93 710.51C623.26 700.71 611.19 689.05 600.71 691.29ZM577.14 767.5C571.25 767.24 565.9 763.42 560.86 760.62C551.26 755.3 541.65 749.14 531.5 744.97C531.05 750.33 537.98 764.44 540.17 770.37C541.53 774.06 543.45 778.19 541.5 781.83C534.15 784.92 531.13 776.07 528.78 770.7C522.16 755.54 515.54 739.57 511.55 723.5C517.6 722.97 522.91 726.53 528.1 729.41C537.89 734.82 547.51 740.77 557.5 745.78C558.26 737.34 551.51 728.42 548.82 720.6C547.45 716.62 545.7 712.6 548.5 708.98C555.58 706.54 557.59 714.44 559.86 719.61C564.59 730.41 568.87 741.36 573.21 752.31C575.01 756.84 578.25 762.63 577.14 767.5ZM290.5 789.31C287.85 785.27 289 780.99 290.14 776.54C292.65 766.73 296.8 757.41 299.15 747.54C300.6 741.46 300.64 733.64 293.21 731.36C287.17 729.51 283.15 736.93 280.82 741.34C276.15 750.23 272.85 759.81 268.17 768.67C265.96 772.86 264.56 776.55 259.5 776.99C252.96 772.58 259.61 762.19 262.02 756.51C267.94 742.5 278.6 713.69 298.62 721.81C319.47 730.27 307.52 756.9 302.46 771.92C300.24 778.48 298.36 788.29 290.5 789.31ZM408.5 737.1C413.86 737.47 413.15 740.66 414.37 745.22C416.05 751.52 417.32 758.55 420.01 764.45C429.46 764.45 438.91 764.45 448.36 764.45C448.76 765.8 449.17 767.15 449.58 768.5C441.73 773.83 433.89 779.17 426.05 784.5C429.01 793.5 431.97 802.5 434.93 811.5C433.79 812.27 432.64 813.05 431.5 813.82C424.17 808.04 416.83 802.25 409.5 796.46C403.33 799.05 397.7 804.85 392.37 808.91C389.32 811.23 387.37 813.89 383.76 811.5C382.8 808.37 384.63 805.42 385.8 802.33C388.04 796.4 390.34 790.48 392.48 784.5C384.77 778.83 377.07 773.17 369.36 767.5C369.86 766.27 370.35 765.04 370.85 763.81C380.4 763.81 389.95 763.81 399.5 763.81C401.26 757.85 404.96 740.88 408.5 737.1Z" fill="#ffffff" fill-rule="evenodd" stroke="#024f6d" stroke-width="0.25" stroke-linejoin="round" data-index="1" style="opacity: 1;"></path>
</svg>