<svg width="189" height="66" viewBox="0 0 189 66" fill="none" xmlns="http://www.w3.org/2000/svg">
<rect y="15" width="36" height="36" fill="white"/>
<path d="M54.68 49.576C52.888 49.576 51.416 49.0213 50.264 47.912C49.112 46.76 48.536 45.2453 48.536 43.368C48.536 41.5333 49.112 39.8053 50.264 38.184C51.416 36.52 52.9947 35.0267 55 33.704C57.0053 32.3813 59.288 31.3147 61.848 30.504C62.4027 30.3333 62.68 29.9707 62.68 29.416V23.592C62.68 21.544 62.36 20.0933 61.72 19.24C61.08 18.344 60.2053 17.896 59.096 17.896C58.0293 17.896 57.048 18.3867 56.152 19.368C55.2987 20.3067 54.68 21.9067 54.296 24.168C54.0827 25.5333 53.6133 26.536 52.888 27.176C52.2053 27.7733 51.5013 28.072 50.776 28.072C49.5813 28.072 48.984 27.4747 48.984 26.28C48.984 25.0427 49.3253 23.8267 50.008 22.632C50.7333 21.3947 51.672 20.2853 52.824 19.304C53.976 18.28 55.2347 17.4693 56.6 16.872C57.9653 16.2747 59.3307 15.976 60.696 15.976C64.92 15.976 67.032 18.4293 67.032 23.336V42.92C67.032 44.712 67.48 45.608 68.376 45.608C68.9307 45.608 69.4427 45.2453 69.912 44.52C70.3813 43.752 70.616 42.472 70.616 40.68C70.616 39.9973 70.8933 39.656 71.448 39.656C71.96 39.656 72.216 40.0187 72.216 40.744C72.216 43.8587 71.6613 46.12 70.552 47.528C69.4853 48.8933 68.2693 49.576 66.904 49.576C65.88 49.576 65.0693 49.1707 64.472 48.36C63.8747 47.5067 63.4693 46.504 63.256 45.352C63.2133 44.9253 63.0213 44.712 62.68 44.712C62.3813 44.6693 62.0827 44.8613 61.784 45.288C60.76 46.696 59.7147 47.7627 58.648 48.488C57.5813 49.2133 56.2587 49.576 54.68 49.576ZM56.408 46.632C57.5173 46.632 58.5413 46.248 59.48 45.48C60.4187 44.6693 61.1867 43.6027 61.784 42.28C62.3813 40.9573 62.68 39.464 62.68 37.8V33.128C62.68 32.3173 62.232 32.0827 61.336 32.424C58.7333 33.3627 56.7067 34.664 55.256 36.328C53.848 37.9493 53.144 39.912 53.144 42.216C53.144 45.16 54.232 46.632 56.408 46.632ZM74.4825 49C73.8425 49 73.5225 48.7227 73.5225 48.168C73.5225 47.9973 73.5865 47.784 73.7145 47.528C73.8425 47.272 73.9918 46.952 74.1625 46.568L88.4985 19.304C88.7118 18.9627 88.7332 18.664 88.5625 18.408C88.4345 18.152 88.1572 18.024 87.7305 18.024H85.0425C82.9518 18.024 81.3945 18.3867 80.3705 19.112C79.3892 19.8373 78.5785 20.8827 77.9385 22.248L76.5305 25.192C76.2745 25.7467 75.9545 26.024 75.5705 26.024C75.0158 26.024 74.8025 25.704 74.9305 25.064L76.4665 16.36C76.6372 15.336 77.0212 14.824 77.6185 14.824C78.0025 14.824 78.2372 14.952 78.3225 15.208C78.4078 15.464 78.5572 15.72 78.7705 15.976C79.0265 16.232 79.5598 16.36 80.3705 16.36H93.1705C93.8105 16.36 94.1305 16.6373 94.1305 17.192C94.1305 17.3627 94.0665 17.576 93.9385 17.832C93.8532 18.088 93.7038 18.408 93.4905 18.792L79.2185 46.056C79.0478 46.3973 79.0052 46.696 79.0905 46.952C79.2185 47.208 79.5172 47.336 79.9865 47.336H82.8665C85.3838 47.336 87.1545 46.9947 88.1785 46.312C89.2025 45.5867 90.0345 44.4347 90.6745 42.856L92.5945 38.184C92.8505 37.6293 93.1705 37.352 93.5545 37.352C94.1092 37.352 94.3225 37.7147 94.1945 38.44L92.5305 47.848C92.4025 48.616 91.9545 49 91.1865 49H74.4825ZM102.805 49.576C101.013 49.576 99.541 49.0213 98.389 47.912C97.237 46.76 96.661 45.2453 96.661 43.368C96.661 41.5333 97.237 39.8053 98.389 38.184C99.541 36.52 101.12 35.0267 103.125 33.704C105.13 32.3813 107.413 31.3147 109.973 30.504C110.528 30.3333 110.805 29.9707 110.805 29.416V23.592C110.805 21.544 110.485 20.0933 109.845 19.24C109.205 18.344 108.33 17.896 107.221 17.896C106.154 17.896 105.173 18.3867 104.277 19.368C103.424 20.3067 102.805 21.9067 102.421 24.168C102.208 25.5333 101.738 26.536 101.013 27.176C100.33 27.7733 99.6263 28.072 98.901 28.072C97.7063 28.072 97.109 27.4747 97.109 26.28C97.109 25.0427 97.4503 23.8267 98.133 22.632C98.8583 21.3947 99.797 20.2853 100.949 19.304C102.101 18.28 103.36 17.4693 104.725 16.872C106.09 16.2747 107.456 15.976 108.821 15.976C113.045 15.976 115.157 18.4293 115.157 23.336V42.92C115.157 44.712 115.605 45.608 116.501 45.608C117.056 45.608 117.568 45.2453 118.037 44.52C118.506 43.752 118.741 42.472 118.741 40.68C118.741 39.9973 119.018 39.656 119.573 39.656C120.085 39.656 120.341 40.0187 120.341 40.744C120.341 43.8587 119.786 46.12 118.677 47.528C117.61 48.8933 116.394 49.576 115.029 49.576C114.005 49.576 113.194 49.1707 112.597 48.36C112 47.5067 111.594 46.504 111.381 45.352C111.338 44.9253 111.146 44.712 110.805 44.712C110.506 44.6693 110.208 44.8613 109.909 45.288C108.885 46.696 107.84 47.7627 106.773 48.488C105.706 49.2133 104.384 49.576 102.805 49.576ZM104.533 46.632C105.642 46.632 106.666 46.248 107.605 45.48C108.544 44.6693 109.312 43.6027 109.909 42.28C110.506 40.9573 110.805 39.464 110.805 37.8V33.128C110.805 32.3173 110.357 32.0827 109.461 32.424C106.858 33.3627 104.832 34.664 103.381 36.328C101.973 37.9493 101.269 39.912 101.269 42.216C101.269 45.16 102.357 46.632 104.533 46.632ZM121.968 49C121.456 49 121.2 48.7653 121.2 48.296C121.2 47.8693 121.434 47.6133 121.904 47.528L122.799 47.4C123.696 47.272 124.357 47.016 124.784 46.632C125.21 46.248 125.424 45.608 125.424 44.712V8.04C125.424 7.272 125.296 6.73866 125.04 6.44C124.826 6.14133 124.421 5.97066 123.824 5.928L122.352 5.736C121.882 5.65066 121.648 5.39466 121.648 4.968C121.648 4.54133 121.882 4.28533 122.352 4.2C123.546 3.944 124.57 3.64533 125.424 3.304C126.277 2.96266 126.981 2.62133 127.536 2.28C128.218 1.85333 128.73 1.64 129.072 1.64C129.541 1.64 129.776 1.98133 129.776 2.664V44.712C129.776 45.608 129.904 46.248 130.16 46.632C130.458 46.9733 131.056 47.208 131.952 47.336L133.424 47.528C133.893 47.6133 134.128 47.8693 134.128 48.296C134.128 48.7653 133.872 49 133.36 49H121.968ZM142.046 10.28C141.15 10.28 140.382 9.96 139.742 9.32C139.145 8.68 138.846 7.86933 138.846 6.888C138.846 5.90666 139.145 5.11733 139.742 4.52C140.382 3.88 141.15 3.56 142.046 3.56C142.942 3.56 143.689 3.88 144.286 4.52C144.883 5.11733 145.182 5.90666 145.182 6.888C145.182 7.86933 144.883 8.68 144.286 9.32C143.689 9.96 142.942 10.28 142.046 10.28ZM136.67 49C136.03 49 135.71 48.7653 135.71 48.296C135.71 47.912 135.987 47.656 136.542 47.528L137.31 47.4C138.377 47.2293 139.059 46.9733 139.358 46.632C139.657 46.248 139.806 45.608 139.806 44.712V23.208C139.806 22.44 139.678 21.928 139.422 21.672C139.209 21.3733 138.803 21.1813 138.206 21.096L136.862 20.904C136.307 20.8613 136.03 20.6267 136.03 20.2C136.03 19.8587 136.371 19.624 137.054 19.496C138.377 19.2827 139.443 18.9413 140.254 18.472C141.065 18.0027 141.854 17.4267 142.622 16.744C143.006 16.36 143.326 16.168 143.582 16.168C143.966 16.168 144.158 16.424 144.158 16.936V44.712C144.158 45.608 144.286 46.248 144.542 46.632C144.798 47.016 145.289 47.2507 146.014 47.336L147.614 47.528C148.083 47.6133 148.318 47.848 148.318 48.232C148.318 48.744 147.998 49 147.358 49H136.67Z" fill="white"/>
</svg>
